<?xml version="1.0" standalone="no"?>
<!DOCTYPE svg PUBLIC "-//W3C//DTD SVG 20010904//EN"
 "http://www.w3.org/TR/2001/REC-SVG-20010904/DTD/svg10.dtd">
<svg version="1.0" xmlns="http://www.w3.org/2000/svg"
 width="637.000000pt" height="637.000000pt" viewBox="0 0 637.000000 637.000000"
 preserveAspectRatio="xMidYMid meet">
<metadata>
Created by potrace 1.11, written by Peter Selinger 2001-2013
</metadata>
<g transform="translate(0.000000,637.000000) scale(0.100000,-0.100000)"
fill="#000000" stroke="none">
<path d="M3008 6355 c-134 -26 -271 -86 -379 -168 -31 -23 -499 -440 -1040
-927 -541 -487 -1004 -900 -1029 -919 -71 -53 -168 -150 -215 -217 -60 -82
-120 -211 -147 -314 l-23 -85 0 -1470 0 -1470 23 -85 c92 -347 367 -609 716
-681 81 -17 141 -19 542 -19 l451 0 11 93 c22 176 111 487 167 582 30 52 68
64 131 43 127 -44 340 -250 401 -388 32 -73 69 -202 78 -273 l7 -57 208 0 207
0 -4 53 c-36 471 -268 797 -753 1056 -63 34 -118 67 -122 74 -28 41 69 462
153 663 30 71 54 94 99 94 31 0 219 -69 303 -112 402 -202 764 -568 953 -963
116 -243 182 -496 209 -797 l7 -68 200 0 201 0 -7 141 c-14 302 -74 560 -191
820 -264 587 -713 1011 -1425 1344 l-175 82 1 79 c2 150 127 586 187 652 26
29 62 28 163 -2 385 -115 782 -338 1117 -625 132 -114 340 -328 445 -459 246
-308 456 -704 573 -1082 85 -271 149 -631 149 -832 0 -118 0 -118 84 -118 77
0 229 28 289 53 l37 16 0 95 c0 52 -7 156 -15 233 -48 433 -157 806 -351 1200
-462 936 -1170 1546 -2236 1927 -104 37 -128 57 -128 105 0 158 146 666 203
706 31 22 56 19 187 -20 706 -211 1403 -651 1942 -1226 418 -446 719 -927 942
-1504 l35 -90 -2 1120 -2 1120 -23 80 c-25 90 -85 222 -134 293 -44 65 -141
165 -213 221 -33 25 -509 450 -1059 944 -549 494 -1026 916 -1059 939 -80 54
-190 104 -285 129 -103 27 -300 34 -404 14z"/>
</g>
</svg>
